<svg xmlns="http://www.w3.org/2000/svg" xmlns:xlink="http://www.w3.org/1999/xlink" viewBox="0 0 32 32" id="Search">
  <defs>
    <linearGradient id="a">
      <stop offset="0" stop-color="#ffffff" class="stopColor000092 svgShape"></stop>
      <stop offset="1" stop-color="#f7f7f7" class="stopColorff00f3 svgShape"></stop>
    </linearGradient>
    <linearGradient xlink:href="#a" id="b" x1="4.971" x2="24" y1="16.001" y2="16.001" gradientUnits="userSpaceOnUse"></linearGradient>
  </defs>
  <path fill="url(#b)" d="M14.021 1.004c-1.5.038-3.011.44-4.4 1.242-4.444 2.568-5.97 8.271-3.404 12.719 2.07 3.59 6.18 5.272 10.025 4.44l1.62 2.804a.5.5 0 0 0 .681.182l.164-.094.932 1.615 2.265 3.928 1.219 2.115a2.101 2.101 0 0 0 2.861.768 2.104 2.104 0 0 0 .766-2.864l-4.418-7.658.164-.094a.5.5 0 0 0 .184-.683l-1.6-2.772c2.71-2.915 3.342-7.372 1.25-10.998a9.307 9.307 0 0 0-8.309-4.65zm.03.994a8.293 8.293 0 0 1 7.412 4.156 8.306 8.306 0 0 1-3.04 11.352 8.291 8.291 0 0 1-11.341-3.041 8.306 8.306 0 0 1 3.04-11.352 8.27 8.27 0 0 1 3.929-1.115zm.027 1.078a7.189 7.189 0 0 0-3.422.965c-3.454 1.996-4.64 6.432-2.646 9.889a7.235 7.235 0 0 0 9.879 2.646 7.246 7.246 0 0 0 2.648-9.885 7.236 7.236 0 0 0-6.459-3.615zm.03.994a6.226 6.226 0 0 1 5.564 3.121 6.232 6.232 0 0 1-2.283 8.52 6.222 6.222 0 0 1-8.514-2.281 6.234 6.234 0 0 1 2.281-8.522 6.216 6.216 0 0 1 2.951-.838zm6.226 13.293 1.229 2.13-3.086 1.782-1.237-2.144a9.315 9.315 0 0 0 1.684-.76c.51-.295.978-.636 1.41-1.008zm1.133 3.338 4.418 7.658a1.083 1.083 0 0 1-.4 1.496 1.08 1.08 0 0 1-1.495-.4l-1.22-2.115-2.266-3.928-.932-1.615 1.895-1.096z" color="#000" font-family="sans-serif" font-weight="400" overflow="visible" style="line-height:normal;text-indent:0;text-align:start;text-decoration-line:none;text-decoration-style:solid;text-decoration-color:#000;text-transform:none;block-progression:tb;isolation:auto;mix-blend-mode:normal"></path>
</svg>
