<svg xmlns="http://www.w3.org/2000/svg" viewBox="0 0 150.58 114.72" id="sunny-windy-cloudy">
  <g>
    <g>
      <circle cx="58.82" cy="48.13" r="38.17" fill="#febc12" opacity=".2"></circle>
      <path fill="#5869b1" d="M116,59.66a12.48,12.48,0,0,0-4.86,1c0-.43.07-.86.07-1.3A23.33,23.33,0,0,0,65.6,52.5,18.85,18.85,0,1,0,55.31,87.15H116c6.88,0,13.11-5.76,12.47-15C128,65.26,122.92,59.66,116,59.66Z" opacity=".5"></path>
      <path fill="#febc12" d="M58.5,17.1A30.69,30.69,0,0,0,36.2,68.89c0-.21,0-.41,0-.62A18.84,18.84,0,0,1,65.32,52.48,23.31,23.31,0,0,1,86.58,36C88.08,39.65,81.38,17.1,58.5,17.1Z"></path>
      <path fill="#ddd" d="M128.83,91.86a7.7,7.7,0,0,1-6.56-3.64,1.25,1.25,0,0,1,.39-1.74,1.28,1.28,0,0,1,.66-.18,1.23,1.23,0,0,1,1.06.59A5.24,5.24,0,0,0,134.07,84a5.44,5.44,0,0,0-5.54-5.11H72.23a1.27,1.27,0,0,1-.92-.38,1.24,1.24,0,0,1-.35-.89,1.25,1.25,0,0,1,1.25-1.23h56.32a8,8,0,0,1,8.05,7.54,7.79,7.79,0,0,1-7.75,8Zm-56.6-19a1.27,1.27,0,0,1-.92-.38,1.24,1.24,0,0,1-.35-.89,1.25,1.25,0,0,1,1.25-1.23H141A6.92,6.92,0,0,0,148.06,64a6.69,6.69,0,0,0-6.73-7.16,6.76,6.76,0,0,0-5.91,3.48,1.25,1.25,0,0,1-1.09.65,1.32,1.32,0,0,1-.61-.16,1.23,1.23,0,0,1-.59-.75,1.21,1.21,0,0,1,.1-.95,9.26,9.26,0,0,1,17.33,5.05A9.43,9.43,0,0,1,141,72.86Zm0-6a1.25,1.25,0,1,1,0-2.5h46.32a5.44,5.44,0,0,0,5.54-5.11,5.24,5.24,0,0,0-9.68-2.93,1.25,1.25,0,0,1-1.75.4,1.25,1.25,0,0,1-.37-1.73,7.76,7.76,0,0,1,14.31,4.32,8,8,0,0,1-8,7.55Z" opacity=".6"></path>
      <path fill="#fff" d="M72.2,66.11h46.33a7.21,7.21,0,0,0,7.3-6.82,7,7,0,0,0-12.93-3.9.49.49,0,0,0-.07.38.53.53,0,0,0,.22.32.5.5,0,0,0,.69-.15,6,6,0,0,1,9.39-1,5.91,5.91,0,0,1,1.69,4.36,6.19,6.19,0,0,1-6.29,5.84H72.23a.5.5,0,1,0,0,1Z"></path>
      <path fill="#fff" d="M147.5 57.79a8.48 8.48 0 00-13.61 1.7.5.5 0 00.19.68.45.45 0 00.25.07.52.52 0 00.44-.26 7.49 7.49 0 0114 4.09 7.67 7.67 0 01-7.8 7H72.23a.5.5 0 100 1H141a8.68 8.68 0 008.8-8A8.43 8.43 0 00147.5 57.79zM128.53 77.11H72.21a.5.5 0 000 1h56.33A6.19 6.19 0 01134.82 84a6 6 0 01-6 6.16 6 6 0 01-5.08-2.82.5.5 0 00-.43-.24.46.46 0 00-.26.07.5.5 0 00-.23.31.51.51 0 00.06.38 7 7 0 0012.94-3.89A7.21 7.21 0 00128.53 77.11z"></path>
    </g>
  </g>
</svg>
